# xmcd
#
# Track frame offsets:
# 150
# 12677
# 25975
# 41436
# 54019
# 67778
# 81345
# 96718
# 113030
# 127808
# 141968
# 155754
# 167528
# 181154
# 193827
# 208910
# 225762
# 240028
# 253720
# 268946
# 284070
# 298417
# 318249
#
# Disc length: 4464 seconds
#
#
# Revision: 0
# Processed by: cddbd v1.5.1PL2 Copyright (c) Steve Scherf et al.
# Submitted via: FreeRIP 2.944 
#
DISCID=4c116e17
DTITLE=Varios - Clube Do Rodeio
DYEAR=1900
DGENRE=Country
TTITLE0=Rio Negro and Solimões - Na Sola da Bota
TTITLE1=Ataíde and Alexandre - Tá Nervoso...Va Pescar
TTITLE2=Cesar and Paulinho - Morena Ai Ai
TTITLE3=Teodoro and Sampaio - Virus da Paixão
TTITLE4=Gino and Geno - O Que Eu Estou Fazendo Aqui
TTITLE5=Bruno and Marrone - Credo e Cruz Ave Maria
TTITLE6=Teodoro and Sampaio - Solteirona
TTITLE7=Brunno and Marlow - Ele Não, Não Fuma, Não Foge
TTITLE8=Ataíde and Alexandre - Mulher Boa era Maria
TTITLE9=Trio Alto Astral - Bom Demais da Conta
TTITLE10=Teodoro and Sampaio - A Rabada da Cunhada
TTITLE11=Burno and Marrone - Tá Liberado
TTITLE12=Rio Negro and Solimões - O Grito da Galera
TTITLE13=Mauricio and Marcelo - Quarentona
TTITLE14=André and Adriano - Vou Gastar Meus Dez Reais
TTITLE15=César and Paulinho - Olha Nós Aqui
TTITLE16=Gino and Geno - Tche, Tche, Tche,Tcha, Tcha, Tcha
TTITLE17=Mauricio and Mauri - Namoro Escondido
TTITLE18=Agnaldo and Adriano - Manuela
TTITLE19=Leonardo - Malvada
TTITLE20=César and Paulinho - Nóis é do Mato, mas Nóis Conhece
TTITLE21=Rick and Renner (Remix) - Ela é demais
TTITLE22=Bruno 7 Marrone ( Remix) - Dormi Na Praça
EXTD=Topógrafo Café
EXTT0=
EXTT1=
EXTT2=
EXTT3=
EXTT4=
EXTT5=
EXTT6=
EXTT7=
EXTT8=
EXTT9=
EXTT10=
EXTT11=
EXTT12=
EXTT13=
EXTT14=
EXTT15=
EXTT16=
EXTT17=
EXTT18=
EXTT19=
EXTT20=
EXTT21=
EXTT22=
PLAYORDER=
